<svg xmlns="http://www.w3.org/2000/svg" xmlns:xlink="http://www.w3.org/1999/xlink" width="424" height="110" viewBox="0 0 424 110"><svg width="424" height="109.001" viewBox="0 0 424 109.001" id="logo" y="0"><path d="M3 19.524h5.846V89.04H3zM67.922 19.526H78.59V89.04H67.92zM246.962 19.393h31.168v7.993h-31.168zM246.963 49.85h31.168v7.996h-31.167zM246.962 81.11h31.168v7.997h-31.168zM332.618 90.397c-.512 0-.828-.017-.9-.02l-2.02-.135.49-8.876 2.043.114c.013 0 .138.004.34.004 1.18 0 7.245-.172 10.823-3.572 1.96-1.865 2.957-4.58 2.957-8.073 0-6.252-6.695-9.675-14.45-13.638-8.454-4.32-18.03-9.212-18.03-19.6 0-5.78 1.79-10.374 5.326-13.657 4.646-4.315 10.793-4.78 13.22-4.78.55 0 .892.024.958.028l2.04.147-.64 8.884-2.037-.144c-.012 0-.13-.004-.314-.004-1.078 0-4.785.174-7.18 2.414-1.633 1.53-2.463 3.92-2.463 7.11 0 4.935 6.396 8.202 13.168 11.66 8.607 4.4 19.312 9.87 19.312 21.577 0 6.046-1.938 10.944-5.758 14.56-5.72 5.415-13.714 6-16.884 6zM112.56 101.92L149.028 3l10.86 4.01-36.465 98.913M378.153 102.682l36.47-98.915 6.698 2.478-36.464 98.915M185.304 28.545h11.026c2.1 0 12.58.493 12.58 10.23 0 7.928-4.703 12.663-12.58 12.663h-6.624l-.024-.035c-.39 1.064-2.62 7.114-3.89 10.56l19.556 28.223 10.97-.124-20.975-30.442h.987c12.416 0 20.76-8.377 20.76-20.845 0-10.84-8.537-18.41-20.76-18.41h-8.01l-3.016 8.18z"/></svg>
</svg>